<?xml version="1.0" encoding="utf-8"?>
<!-- Generator: Adobe Illustrator 22.0.1, SVG Export Plug-In . SVG Version: 6.00 Build 0)  -->
<svg version="1.1" id="Layer_1" xmlns="http://www.w3.org/2000/svg" xmlns:xlink="http://www.w3.org/1999/xlink" x="0px" y="0px"
	 viewBox="0 0 354.6 118" style="enable-background:new 0 0 354.6 118;" xml:space="preserve">
<style type="text/css">
	.st0{fill:#FFFFFF;}
</style>
<g>
	<title>Brandeis_logo_stacked_white</title>
	<path class="st0" d="M55.2,96.1v-2.8l6.9-1.2V52.5h-6.3v-2.8l18.4-4.5l0.2,8c1.7-1.4,5.9-5.5,9.7-6.5c4.2-1.1,7.6,0.6,8.6,4.1
		c0.4,1.7,0.6,3.5,0.4,5.2c0,0.2-12.3,5.1-12.3,5.1l0.1-0.4c0.4-2.8-0.1-4.8-1.3-5.4c-0.2-0.1-0.5-0.2-0.8-0.2
		c-1.5,0-3.7,1.3-4.4,1.8L74.2,57v1V92l6.7,1.2v2.8H55.2z"/>
	<path class="st0" d="M302.9,38.2c-4.2,0-7.6-3.4-7.6-7.6c0-2,0.8-4,2.2-5.4c2.9-3,7.6-3,10.6-0.1c0,0,0.1,0.1,0.1,0.1
		c1.4,1.4,2.2,3.4,2.2,5.4C310.5,34.8,307.1,38.2,302.9,38.2 M290.1,96.1v-2.8l6.8-1.2V52.5h-6.3v-2.8l18.4-4.4V92l6.5,1.2v2.8
		L290.1,96.1z"/>
	<path class="st0" d="M335.8,97.1c-5.2-0.1-10.4-1.3-15.1-3.5l-0.1-0.1l-1-13.5h3.4v0.2c1.4,8.1,5.7,12.4,12.4,12.4
		c3.9,0.3,7.3-2.7,7.6-6.6c0-0.3,0-0.6,0-0.9c0-2-0.9-4-2.5-5.3c-1.5-1.4-3.9-2.7-7.5-4.2c-8.7-3.6-13.7-7.3-13.7-15.7
		c-0.1-3.8,1.6-7.5,4.6-9.9c3.1-2.6,7.7-3.9,13.1-3.9c4.9,0,9.7,1.1,14.2,3l0.1,0.1l1,12.9h-3.3V62c-1.8-7.3-6.1-11.5-11.9-11.5
		c-3.4,0-7,2-7,6.4c0,5,4.6,6.7,8.6,8.2c4.3,1.7,8.8,3.7,11.8,6.5c2.9,2.6,4.5,6.3,4.4,10.2c0,2.2-0.5,4.4-1.5,6.3
		c-1,1.9-2.3,3.5-4,4.8c-3.8,2.8-8.5,4.2-13.2,4.1"/>
	<path class="st0" d="M132.2,90.8h-8V59.5c0.2-3.7-1.3-7.3-3.9-9.8c-2.5-2.3-6.2-3.5-10.5-3.5c-4.7,0-10.5,1.2-13.7,3.2l-0.2,0.1
		l1.7,3.1l0.2-0.1c4.7-1.8,9.6-1.2,11.6,0.7c2.1,1.9,2.9,5,2.9,9.6v4.2c-2.7,1-7.1,2.5-11.3,4.1c-6.3,2.4-15,5.3-14.9,14
		c0.1,3.1,1.3,6.1,3.4,8.4c4.6,4.9,12.5,4.6,18.7-0.4c1.2-1,2.6-2.2,4-3.7c0.2,5,2.8,7.6,7.6,7.6s7.8-1.3,12.4-3.9l0.1-0.1
		L132.2,90.8L132.2,90.8z M103.7,88.8c-4.4,0-6-5-5.3-8.5c0.8-4.1,4.4-5.2,7.2-6.4c2.4-1,5.1-2.2,6.5-2.8V75v10.8
		C109.2,87.8,107.1,88.8,103.7,88.8L103.7,88.8z"/>
	<path class="st0" d="M168.2,96.1V61.5c0-4.7-2.5-7.3-6.8-7.3c-4.3,0.1-8.5,1.3-12.1,3.5V92l6.9,1.2v2.8h-19V52.5h-6.3v-2.8
		l18.1-4.5l0.3,8.7c6.9-5.3,13.1-7.7,18.6-7.7c1.5,0,2.9,0.2,4.3,0.7c2.4,0.8,4.5,2.4,5.8,4.6c1.7,2.9,2.5,6.2,2.4,9.5V92l6.9,1.2
		v2.8H168.2z"/>
	<path class="st0" d="M27.9,91.8c8.5,0,12.9-4.8,12.9-14.3c0-7.9-4.2-13-11.8-14.2c-2.3-0.4-4.6-0.6-7-0.6l0,0l-1.8-4h0.4
		c2.6,0.1,5.2-0.1,7.8-0.6c6.5-1.3,9.5-5.3,9.5-12.6c0-8.6-4.2-13.3-11.9-13.3h-7.1v59.7H27.9z M-0.1,96.1v-2.8L6.8,92V31.8
		l-6.9-1.2v-2.9h28c7,0,12.8,1.6,16.8,4.7c3.7,2.9,5.9,7.3,5.8,12.1c0,3.8-1.4,7.4-3.9,10.1c-2.5,2.7-5.8,4.7-9.3,5.7
		c5.5,1.4,9.7,3.8,12.4,7.1c2.5,3,3.8,6.7,3.8,10.6c0.2,5-2,9.9-5.8,13.2c-3.9,3.3-9.7,5-16.8,5H-0.1z"/>
	<path class="st0" d="M235,92V62.6l0,0V20.8l-18.4,5.8v3.1l6.3-0.5v19.7c-3.1-1.8-6.6-2.7-10.1-2.7c-9.9,0-24.5,7.4-24.5,25.5
		c0,12.3,6,25.4,20.2,25.4c4.8,0,9.5-1.9,12.9-5.4l0.1-0.1l-1.2-3l-0.2,0.1c-1.6,0.9-3.5,1.3-5.4,1.2c-7.9,0-13.6-5.9-14.1-18.4
		c-0.5-14.5,5.4-21.1,12.6-21.1c2.2-0.1,4.4,0.8,6,2.3c2.2,2.1,3.6,5.7,3.6,10.6v0.3v32.4h19v-2.8L235,92L235,92z"/>
	<path class="st0" d="M267.9,50.5c2.3-0.1,4.4,0.9,5.8,2.7c1.7,2.2,2.2,5.6,1.2,9.9h-19.3C257.1,55,261.4,50.5,267.9,50.5
		 M284.1,81.6c-2.5,3.9-7.4,6.3-12.8,6.3c-4.1,0.1-8-1.5-10.9-4.4c-3.4-3.6-5.2-8.9-5-15.5h31.2v-0.2c1-6.8-0.1-11.9-3.3-15.7
		s-8.3-5.9-14.9-5.9c-6.3,0-12.4,2.4-17,6.7c-2.4,2.3-4.4,5.1-5.7,8.1c-1.5,3.5-2.2,7.3-2.2,11.1c-0.1,6.4,2.1,12.6,6.2,17.4
		c4.4,4.9,10.5,7.5,17.7,7.5c4.6,0,9-1.6,12.5-4.5c2.9-2.4,5.2-5.6,6.6-9.1L284.1,81.6L284.1,81.6L284.1,81.6z"/>
</g>
</svg>
