<?xml version="1.0" encoding="utf-8"?>
<!-- Generator: Adobe Illustrator 23.0.2, SVG Export Plug-In . SVG Version: 6.00 Build 0)  -->
<svg version="1.1" id="Layer_1" xmlns="http://www.w3.org/2000/svg" xmlns:xlink="http://www.w3.org/1999/xlink" x="0px" y="0px"
	 viewBox="0 0 574 574" style="enable-background:new 0 0 574 574;" xml:space="preserve">
<style type="text/css">
	.st0{fill:#002E6C;}
	.st1{fill:#FFFFFF;}
	.st2{fill:#E2E2E2;}
</style>
<g>
	<path class="st0" d="M209.4,563.6c-103.9,0-188.5-84.6-188.5-188.5v-152c0-103.9,84.6-188.5,188.5-188.5h152
		c28.9,0,57.5,6.7,83.3,19.4l9.7-9.1l23.7-24.6c6.2-6.3,14.8-9.9,23.5-9.9c8,0,15.6,2.9,21.6,8.2l18,15.7
		c7.6,6.7,11.9,16.3,11.8,26.3c-0.1,10.1-4.6,19.6-12.4,26.1L517.5,106l-5.1,4.4c24.2,32.4,37.5,72.1,37.5,112.7v152
		c0,103.9-84.6,188.5-188.5,188.5H209.4z"/>
</g>
<path class="st1" d="M361.4,543.6h-152c-92.9,0-168.5-75.6-168.5-168.5v-152c0-92.9,75.6-168.5,168.5-168.5h152
	c92.9,0,168.5,75.6,168.5,168.5v152C529.9,468,454.3,543.6,361.4,543.6z M209.4,95.9c-70.1,0-127.2,57-127.2,127.2v152
	c0,70.1,57,127.2,127.2,127.2h152c70.1,0,127.2-57,127.2-127.2v-152c0-70.1-57-127.2-127.2-127.2L209.4,95.9L209.4,95.9z"/>
<g>
	<path class="st2" d="M343.3,203.6c-3.8-6.4-8.6-11.6-14.3-15.6c-5.7-3.9-12-6.7-18.9-8.1c-6.9-1.5-13.5-2.2-19.6-2.2
		c-14.8,0-29.1,1.1-43,3.1c-13.8,2.1-27.2,4.5-40,7.2c-6.4,44.5-13.1,88.6-20.2,132.4c-6.1,37.9-14,75.6-23.7,113.1l-14.3,9.9
		l9.6,7.4l0,0c0,0.1,0,0.1-0.1,0.2c7.9,1.5,16.4,2.2,25.6,2.2c9.4,0,19.3-0.8,29.4-2.4h2.1l-0.2-0.3c0.1,0,0.2,0,0.3,0
		c11-1.9,21.7-4.6,32.2-8.1c10.5-3.6,20.5-8,30-13.3s17.8-11.5,25-18.5s12.8-14.9,17-23.5s6.3-18,6.3-28.2c0-7.4-0.9-14.1-2.8-20
		s-4.3-11-7.2-15.4s-6.2-8.1-9.6-11.3c-3.5-3.2-6.8-5.7-10-7.4c6.4-2.5,12.7-6.1,18.9-10.9s11.7-10.6,16.5-17.2s8.8-14.1,11.9-22.2
		s4.6-16.9,4.6-26.3C349.1,218.1,347.1,210,343.3,203.6z M278.3,359.7c-3.7,4.3-8.3,7.8-13.7,10.4c-5.4,2.6-11.1,4.5-17,5.7
		s-11.2,2.1-15.9,2.6c1-6.2,1.9-11.5,2.8-16.1c0.9-4.6,1.7-9,2.4-13.1c0.7-4.2,1.5-8.6,2.4-13.1c0.9-4.6,1.8-9.8,2.8-15.7
		c1-0.2,1.9-0.4,2.8-0.4c0.9,0,1.9,0,3.1,0c3.7,0,7.6,0.4,11.9,1.3c4.2,0.9,8.1,2.3,11.7,4.3s6.5,4.5,8.9,7.4
		c2.3,3,3.5,6.7,3.5,11.1C283.9,350.2,282,355.4,278.3,359.7z M291.8,257.7c-2.6,2.5-6,4.8-10.4,6.9c-4.3,2.1-9.2,4-14.6,5.7
		s-10.9,3.1-16.3,4.1c0.5-3,1.2-6.4,2-10.4c0.9-3.9,1.7-8,2.4-12c0.7-4.1,1.4-8,2-11.7c0.6-3.7,1.2-6.9,1.7-9.6h3.7
		c3,0,6.4,0.3,10.2,0.9s7.5,1.7,11.1,3.1s6.5,3.4,8.7,5.7c2.2,2.4,3.3,5.4,3.3,9.1C295.7,252.5,294.4,255.2,291.8,257.7z"/>
	<g>
		<path class="st1" d="M310.9,379.5c-4.2,8.6-9.9,16.5-17,23.5c-7.2,7-15.5,13.2-25,18.5s-19.5,9.8-30,13.3s-21.2,6.3-32.2,8.1
			c-11,1.9-21.6,2.8-31.7,2.8c-9.1,0-17.7-0.7-25.6-2.2c11.9-43.2,21.3-86.8,28.3-130.6s13.8-88,20.2-132.4
			c12.8-2.7,26.2-5.1,40-7.2c13.8-2.1,28.2-3.1,43-3.1c6.2,0,12.7,0.7,19.6,2.2s13.2,4.2,18.9,8.1s10.4,9.1,14.3,15.6
			c3.8,6.4,5.7,14.6,5.7,24.4c0,9.4-1.5,18.1-4.6,26.3c-3.1,8.1-7,15.6-11.9,22.2c-4.8,6.7-10.3,12.4-16.5,17.2
			c-6.2,4.8-12.5,8.5-18.9,10.9c3.2,1.7,6.5,4.2,10,7.4s6.7,7,9.6,11.3c3,4.3,5.4,9.5,7.2,15.4c1.9,5.9,2.8,12.6,2.8,20
			C317.2,361.5,315.1,370.9,310.9,379.5z M229.6,328.6c-0.9,4.6-1.7,9-2.4,13.1c-0.7,4.2-1.6,8.6-2.4,13.1
			c-0.9,4.6-1.8,9.9-2.8,16.1c4.7-0.5,10-1.4,15.9-2.6s11.6-3.1,17-5.7c5.4-2.6,10-6,13.7-10.4c3.7-4.3,5.6-9.6,5.6-15.7
			c0-4.5-1.2-8.1-3.5-11.1c-2.4-3-5.3-5.4-8.9-7.4s-7.5-3.4-11.7-4.3s-8.1-1.3-11.9-1.3c-1.2,0-2.3,0-3.1,0c-0.9,0-1.8,0.1-2.8,0.4
			C231.4,318.8,230.4,324,229.6,328.6z M247.4,232.9c-0.6,3.7-1.3,7.6-2,11.7c-0.7,4.1-1.6,8.1-2.4,12c-0.9,3.9-1.6,7.4-2,10.4
			c5.4-1,10.9-2.3,16.3-4.1c5.4-1.7,10.3-3.6,14.6-5.7s7.8-4.4,10.4-6.9s3.9-5.2,3.9-8.1c0-3.7-1.1-6.7-3.3-9.1
			c-2.2-2.3-5.1-4.3-8.7-5.7c-3.6-1.5-7.3-2.5-11.1-3.1s-7.2-0.9-10.2-0.9H249C248.5,225.9,248,229.1,247.4,232.9z"/>
	</g>
</g>
<path class="st1" d="M385.9,138.6l25,32l-32.3,9.8c-5.3,1.6-10-3.8-7.7-8.8L385.9,138.6z"/>
<path class="st1" d="M471.9,55.6l34,34l21.9-18.2c6.8-5.7,7-16.1,0.3-22L510,33.6c-5.1-4.5-12.8-4.1-17.5,0.7L471.9,55.6z"/>
<polygon class="st1" points="391.9,130.6 418.9,165.6 500.8,94 466.6,60.9 "/>
</svg>
