<?xml version="1.0" encoding="utf-8"?>
<!-- Generator: Adobe Illustrator 23.0.2, SVG Export Plug-In . SVG Version: 6.00 Build 0)  -->
<svg version="1.1" id="Layer_1" xmlns="http://www.w3.org/2000/svg" xmlns:xlink="http://www.w3.org/1999/xlink" x="0px" y="0px"
	 viewBox="0 0 550 550" style="enable-background:new 0 0 550 550;" xml:space="preserve">
<style type="text/css">
	.st0{fill:#002E6C;}
	.st1{fill:#E2E2E2;}
	.st2{fill:#FFFFFF;}
	.st3{fill:none;}
</style>
<g>
	<rect class="st0" width="550" height="550"/>
</g>
<g>
	<g>
		<path class="st1" d="M326.32,195.58c-3.83-6.42-8.58-11.61-14.26-15.56c-5.68-3.95-11.98-6.67-18.89-8.15
			c-6.92-1.48-13.46-2.22-19.63-2.22c-14.82,0-29.15,1.05-42.97,3.15c-13.83,2.1-27.17,4.51-40.01,7.22
			c-6.43,44.46-13.15,88.61-20.19,132.44c-6.09,37.93-13.99,75.63-23.68,113.09l-14.26,9.89l9.63,7.41h0.02
			c-0.02,0.07-0.04,0.13-0.05,0.2c7.9,1.48,16.42,2.22,25.56,2.22c9.43,0,19.25-0.81,29.44-2.42h2.08l-0.16-0.31
			c0.11-0.02,0.21-0.03,0.32-0.05c10.99-1.85,21.73-4.57,32.23-8.15c10.49-3.58,20.5-8.02,30.01-13.34
			c9.5-5.31,17.84-11.48,25.01-18.52c7.16-7.04,12.84-14.88,17.04-23.52c4.2-8.64,6.3-18.03,6.3-28.16c0-7.41-0.93-14.08-2.78-20.01
			c-1.85-5.93-4.26-11.05-7.22-15.37c-2.96-4.32-6.18-8.09-9.63-11.3c-3.46-3.21-6.8-5.68-10-7.41c6.42-2.47,12.72-6.11,18.89-10.93
			c6.17-4.82,11.67-10.56,16.49-17.23s8.76-14.08,11.85-22.23c3.09-8.15,4.63-16.91,4.63-26.3
			C332.06,210.15,330.15,202,326.32,195.58z M261.3,351.73c-3.7,4.32-8.28,7.78-13.71,10.37c-5.44,2.59-11.11,4.51-17.04,5.74
			c-5.93,1.24-11.24,2.1-15.93,2.59c0.98-6.17,1.91-11.54,2.78-16.12c0.86-4.57,1.67-8.95,2.41-13.15c0.74-4.2,1.54-8.58,2.41-13.15
			c0.86-4.57,1.79-9.82,2.78-15.74c0.98-0.24,1.91-0.37,2.78-0.37c0.86,0,1.91,0,3.15,0c3.7,0,7.65,0.43,11.85,1.3
			c4.2,0.87,8.09,2.29,11.67,4.26c3.58,1.98,6.54,4.45,8.89,7.41c2.34,2.96,3.52,6.67,3.52,11.11
			C266.86,342.16,265.01,347.41,261.3,351.73z M274.82,249.67c-2.59,2.47-6.05,4.76-10.37,6.85c-4.32,2.1-9.2,4.02-14.63,5.74
			c-5.44,1.73-10.87,3.09-16.3,4.08c0.49-2.96,1.17-6.42,2.04-10.37c0.86-3.95,1.67-7.97,2.41-12.04c0.74-4.08,1.42-7.97,2.04-11.67
			c0.61-3.7,1.17-6.91,1.67-9.63h3.7c2.96,0,6.36,0.31,10.19,0.93c3.83,0.62,7.53,1.67,11.11,3.15c3.58,1.48,6.48,3.4,8.71,5.74
			c2.22,2.35,3.33,5.37,3.33,9.08C278.71,244.48,277.42,247.2,274.82,249.67z"/>
		<g>
			<path class="st2" d="M293.9,371.55c-4.2,8.65-9.88,16.49-17.04,23.52c-7.17,7.04-15.5,13.22-25.01,18.52
				c-9.51,5.31-19.51,9.76-30.01,13.34c-10.5,3.58-21.24,6.3-32.23,8.15c-10.99,1.85-21.55,2.78-31.67,2.78
				c-9.14,0-17.66-0.74-25.56-2.22c11.85-43.22,21.3-86.75,28.34-130.59c7.04-43.84,13.77-87.99,20.19-132.44
				c12.84-2.71,26.18-5.12,40.01-7.22c13.83-2.1,28.16-3.15,42.97-3.15c6.17,0,12.72,0.74,19.63,2.22
				c6.91,1.48,13.21,4.2,18.89,8.15c5.68,3.95,10.43,9.14,14.26,15.56c3.83,6.43,5.74,14.58,5.74,24.45c0,9.39-1.55,18.15-4.63,26.3
				c-3.09,8.15-7.04,15.56-11.85,22.23c-4.82,6.67-10.32,12.41-16.49,17.23c-6.18,4.82-12.47,8.46-18.89,10.93
				c3.21,1.73,6.54,4.2,10,7.41c3.46,3.21,6.67,6.98,9.63,11.3c2.96,4.32,5.37,9.45,7.22,15.37c1.85,5.93,2.78,12.6,2.78,20.01
				C300.2,353.53,298.1,362.91,293.9,371.55z M212.59,320.61c-0.87,4.57-1.67,8.95-2.41,13.15c-0.74,4.2-1.55,8.58-2.41,13.15
				c-0.87,4.57-1.79,9.94-2.78,16.12c4.69-0.49,10-1.35,15.93-2.59c5.93-1.23,11.61-3.15,17.04-5.74c5.43-2.59,10-6.05,13.71-10.37
				c3.7-4.32,5.56-9.57,5.56-15.74c0-4.45-1.18-8.15-3.52-11.11c-2.35-2.96-5.31-5.43-8.89-7.41c-3.58-1.97-7.47-3.39-11.67-4.26
				c-4.2-0.86-8.15-1.3-11.85-1.3c-1.24,0-2.29,0-3.15,0c-0.87,0-1.79,0.13-2.78,0.37C214.38,310.79,213.45,316.04,212.59,320.61z
				 M230.37,224.85c-0.62,3.7-1.3,7.59-2.04,11.67c-0.74,4.08-1.55,8.09-2.41,12.04c-0.87,3.95-1.55,7.41-2.04,10.37
				c5.43-0.98,10.87-2.34,16.3-4.08c5.43-1.72,10.31-3.64,14.63-5.74c4.32-2.1,7.78-4.38,10.37-6.85c2.59-2.47,3.89-5.19,3.89-8.15
				c0-3.7-1.11-6.73-3.33-9.08c-2.22-2.34-5.13-4.26-8.71-5.74c-3.58-1.48-7.29-2.53-11.11-3.15c-3.83-0.61-7.22-0.93-10.19-0.93
				h-3.7C231.54,217.93,230.98,221.14,230.37,224.85z"/>
		</g>
	</g>
	<path class="st2" d="M643.91,21.59l25,32l-32.34,9.84c-5.31,1.61-10.03-3.79-7.73-8.83L643.91,21.59z"/>
	<path class="st2" d="M729.91-61.41l34,34l21.95-18.19c6.84-5.67,6.98-16.12,0.3-21.97l-18.14-15.87
		c-5.1-4.46-12.81-4.14-17.52,0.73L729.91-61.41z"/>
	<polygon class="st2" points="649.91,13.59 676.91,48.59 758.81,-22.99 724.63,-56.07 	"/>
	<path class="st3" d="M197.41,83.92c-70.12,0-127.16,57.04-127.16,127.16v152.01c0,70.12,57.04,127.16,127.16,127.16h152.01
		c70.12,0,127.16-57.04,127.16-127.16V211.08c0-17.34-3.49-33.87-9.8-48.94l-35.18,43.91c-7.56,9.44-18.85,14.86-30.95,14.86
		c-11.2,0-21.92-4.77-29.42-13.08l-36.26-40.18c-5.64-6.25-8.43-14.31-7.86-22.7c0.57-8.39,4.43-16,10.86-21.43
		c5.57-4.7,12.65-7.29,19.94-7.29c8.83,0,17.26,3.78,23.13,10.38l18.42,20.72l28.1-36.5c-21.57-16.85-48.7-26.9-78.13-26.9H197.41z"
		/>
	<path class="st2" d="M476.58,211.08v152.01c0,70.12-57.04,127.16-127.16,127.16H197.41c-70.12,0-127.16-57.04-127.16-127.16V211.08
		c0-70.12,57.04-127.16,127.16-127.16h152.01c29.43,0,56.55,10.05,78.13,26.9l25.2-32.74c-28.55-22.23-64.42-35.5-103.33-35.5
		H197.41c-92.91,0-168.49,75.59-168.49,168.49v152.01c0,92.91,75.59,168.49,168.49,168.49h152.01
		c92.91,0,168.49-75.59,168.49-168.49V211.08c0-30.74-8.28-59.58-22.72-84.42l-28.42,35.47
		C473.08,177.21,476.58,193.75,476.58,211.08z"/>
	<path class="st2" d="M342.39,160.94l36.26,40.18c12.24,13.57,33.72,12.93,45.15-1.33L528.47,69.13c7.95-9.92,6.11-24.44-4.06-32.07
		l-6.04-4.53c-6.3-4.73-15.24-3.51-20.04,2.73l-95.05,123.47c-1.7,2.21-5,2.33-6.86,0.24l-22.87-25.73
		c-7.54-8.48-20.47-9.41-29.14-2.09l0,0C335.44,138.72,334.52,152.22,342.39,160.94z"/>
</g>
</svg>
