<?xml version="1.0" encoding="utf-8"?>
<!-- Generator: Adobe Illustrator 23.0.2, SVG Export Plug-In . SVG Version: 6.00 Build 0)  -->
<svg version="1.1" id="Layer_1" xmlns="http://www.w3.org/2000/svg" xmlns:xlink="http://www.w3.org/1999/xlink" x="0px" y="0px"
	 viewBox="0 0 652.9 670" style="enable-background:new 0 0 652.9 670;" xml:space="preserve">
<style type="text/css">
	.st0{fill:#F13F5B;}
</style>
<path class="st0" d="M241.9,251.4l1.3,173.4l0,0l3,127l-37-0.2h-58.9c-24,0-45.8-29.5-47.2-56.3c-3.4,1.2-7,1.9-10.7,1.9
	c-10.6,0-20.5-5.5-27.3-15.2l-12-17.2v27.4c0,59.6,42.6,107.9,95.1,107.9h58.1l38.8-0.3v16.8c-0.4,30.1,21,70.7,80,44.9l186.5-75.6
	l14.5-5.2c35-15.8,69.9-48.7,70-88.4v-0.1l0.2-375.7c0-2-0.1-4-0.2-6.2v-2.2c0-59.6-42.6-107.9-95.1-107.9H148.2
	C95.6,0.2,53,48.5,53,108.1v102.7l12.3-17.2c6.7-9.5,16.6-14.9,27.1-14.9c3.7,0,7.3,0.7,10.6,1.9v-72.5c0-28.2,21.3-57.3,46.1-57.3
	h351.1L295,138.6c-36,12.5-53,56.9-53.4,87L241.9,251.4"/>
<path class="st0" d="M204.4,276.2h-48.3H156h-52v-42.5c0-11.3-11.7-16.8-18.2-8.6l-83,103.4c-3.8,4.8-3.8,12.3,0,17.1l83,105.2
	c6.5,8.3,18.3,2.8,18.3-8.5v-41.1H156h0.1h48.3c5.8,0,10.6-4.7,10.6-10.6V286.8C215.1,280.9,210.4,276.2,204.4,276.2z"/>
</svg>
