<?xml version="1.0" encoding="utf-8"?>
<!-- Generator: Adobe Illustrator 22.0.1, SVG Export Plug-In . SVG Version: 6.00 Build 0)  -->
<svg version="1.1" xmlns="http://www.w3.org/2000/svg" xmlns:xlink="http://www.w3.org/1999/xlink" x="0px" y="0px"
	 viewBox="0 0 500 500" style="enable-background:new 0 0 500 500;" xml:space="preserve">
<style type="text/css">
	.st0{fill:#FFFFFF;}
	.st1{fill:#E6F8FF;}
	.st2{fill:#CAEDFF;}
	.st3{opacity:0.44;fill:#BAE6F7;}
	.st4{fill:#7BC7FF;}
	.st5{fill:#379CF7;}
	.st6{fill:#2481C6;}
	.st7{fill:#0A4D7A;}
	.st8{fill:#083954;}
	.st9{opacity:0.85;fill:#BAE6F7;}
	.st10{fill:#FBBE42;}
	.st11{fill:#B1D7DD;}
	.st12{clip-path:url(#SVGID_2_);}
	.st13{fill:#FFA683;}
	.st14{fill:#E57C5C;}
	.st15{fill:#004CBA;}
	.st16{fill:#ED7D5A;}
	.st17{fill:#006CBC;}
	.st18{fill:#57BFFF;}
	.st19{fill:#30AFEF;}
	.st20{opacity:0.58;fill:#ED7D5A;}
	.st21{fill:#0A85E0;}
	.st22{clip-path:url(#SVGID_4_);fill:#FBBE42;}
	.st23{clip-path:url(#SVGID_4_);}
	.st24{fill:#FF5A5A;}
	.st25{clip-path:url(#SVGID_6_);}
	.st26{fill:#F9A643;}
</style>
<g id="BACKGROUND">
	<rect class="st0" width="500" height="500"/>
</g>
<g id="OBJECTS">
	<g>
		<g>
			<path class="st1" d="M472.1,392.9c0-6.3-95.5-11.5-213.2-11.5s-213.2,5.1-213.2,11.5c0,6.3,95.5,11.5,213.2,11.5
				S472.1,399.3,472.1,392.9z"/>
			<g>
				<g>
					<path class="st2" d="M72.2,387.5c-24.8-0.1-45-20.5-44.3-45.4c0.4-13.5,5.4-26.6,20.8-33.7c40.4-18.8-16-141,55.5-153.2
						s68.6-105.3,152.3-35.7c83.7,69.6,98.7-24.4,153.2,24.4s-35.7,110.9,32,142.9c44.6,21.1,30,58.9,14.8,82.2
						c-8.2,12.7-22.4,20.2-37.5,20.1L72.2,387.5z"/>
					<path class="st3" d="M419,389.1c15.1,0.1,29.2-7.5,37.5-20.1c15.1-23.3,29.8-61.2-14.8-82.2c-67.7-32,22.6-94-32-142.9
						s-69.6,45.1-153.2-24.4C235.8,102.3,220.5,95.1,208,94c4.2,2.9,8.2,6.7,11.8,11.7c30.4,42.6,48.6,73.6,112.1,68.2
						c63.5-5.4-28.4,105.4,21.6,118.2c33,8.5,28.6,59.4,4.7,96.7L419,389.1z"/>
				</g>
				<g>
					<g>
						<path class="st4" d="M198.2,173.8c0-0.1-7.6-0.5-14.5-4c-6.9-3.2-13-9.3-9.6-15.3c5.2-8.3-9.5-15.3-4.5-19.9
							c5.1-4.1,6.1-0.7,4.2-9.8c-1.6-9.3,4.8-11.5,8.4-19.9c4.1-8.4,13.6-2.1,11.2,8.8c-1.8,11.3,2.5-0.4,5.7,4.7
							c2.7,4.2-8,22.3-3.3,20.6c4.4-2,8.2,0.8,7.6,5.8C201.8,156.7,197.9,173.6,198.2,173.8z"/>
						<path class="st5" d="M201.7,178.6c-0.1,0-0.1,0-0.1-0.1c-5.9-6.9-12.6-17.5-15.9-29.8c0,0,0-0.1,0-0.1c0,0-0.1,0-0.1,0
							c-3.1-1.9-5.9-4.4-8.5-7.1c-0.9-0.9-1.7-1.8-2.6-2.7c0-0.1-0.1-0.1,0-0.2c0-0.1,0.1-0.1,0.2-0.1c0,0,0,0,0.1,0
							c0.8,0.9,1.7,1.8,2.5,2.6c2.4,2.5,4.9,4.9,7.7,6.7c0.2,0.1,0.3,0.2,0.5,0.3c0-0.2-0.1-0.4-0.1-0.6c-1.3-5.2-2.1-10.7-2.3-16.6
							c0-0.1,0-0.1,0-0.2c0,0-0.1-0.1-0.1-0.1c0,0,0,0-0.1,0c-2.2-3.3-4-7.1-5.2-11.2c0-0.1,0-0.1,0-0.2c0.1-0.1,0.1-0.1,0.2,0
							c0,0,0,0,0.1,0.1c1.1,3.7,2.7,7.2,4.6,10.3c0.1,0.2,0.3,0.4,0.4,0.6c0-0.3,0-0.5,0-0.8c-0.1-5.6,0.5-11.5,1.7-17.8
							c0-0.1,0-0.1,0.1-0.1c0,0,0.1,0,0.2,0c0.1,0,0.1,0.1,0.1,0.2c-1.7,8.6-2.1,16.5-1.4,23.9c0,0.2,0,0.3,0,0.5
							c0.1-0.1,0.2-0.2,0.3-0.3c3.6-3.4,6.7-7.2,9.2-11.2c0,0,0.1-0.1,0.1,0c0.1,0,0.1,0.1,0.1,0.1c0,0,0,0.1,0,0.1
							c-2.7,4.2-5.8,8-9.6,11.6c0,0-0.1,0.1-0.1,0.1c0,0,0,0.1,0,0.1c0.4,4.1,1.1,7.9,2.1,11.5c0,0,0,0,0,0.1c0,0,0,0,0,0
							c0,0,0.1,0.1,0,0.1c0,0,0,0,0,0.1c0,0,0,0,0,0.1c0.9,3.2,2,6.4,3.5,9.9c0.1,0.2,0.2,0.4,0.2,0.6c0.1-0.2,0.1-0.4,0.2-0.6
							c1.5-5.6,3.8-10.7,6.6-15.3c0-0.1,0.1-0.1,0.2-0.1c0.1,0,0.1,0.1,0.1,0.1c0,0,0,0.1,0,0.1c-3,4.8-5.3,10.2-6.8,16.1
							c0,0,0,0.1,0,0.1c0,0,0,0.1,0,0.1c2.8,6,6.4,12.2,11.9,18.6c0,0.1,0,0.1,0,0.1C201.8,178.5,201.7,178.6,201.7,178.6
							C201.7,178.6,201.7,178.6,201.7,178.6z"/>
					</g>
					<g>
						<path class="st4" d="M180.3,202.3c-0.1,0,0.7-8.2-1.5-16.2c-2-7.9-7-15.5-13.5-12.7c-9,4.3-13.5-12.6-18.8-8
							c-4.9,4.8-1.7,6.5-10.4,3c-8.9-3.2-12.2,3.4-21,6c-9,3.1-4.4,14.3,6.8,13.5c11.4-0.2-0.8,2.6,3.7,6.9
							c3.7,3.6,23.4-5.2,20.9-0.3c-2.7,4.4-0.6,8.9,4.5,9.1C162.8,203.5,180.1,202,180.3,202.3z"/>
						<path class="st5" d="M184.4,206.8c0-0.1,0-0.1,0-0.1c-5.8-7.4-15.1-16.3-26.8-21.8c0,0-0.1,0-0.1,0c0,0,0-0.1,0-0.1
							c-1.3-3.6-3.4-7-5.6-10.2c-0.7-1.1-1.5-2.1-2.2-3.2c0-0.1-0.1-0.1-0.1-0.1c-0.1,0-0.2,0.1-0.1,0.2c0,0,0,0,0,0.1
							c0.7,1,1.5,2.1,2.2,3.1c2,3,4,6.1,5.3,9.4c0.1,0.2,0.1,0.4,0.2,0.5c-0.2-0.1-0.4-0.2-0.5-0.2c-4.9-2.2-10.2-4-16-5.1
							c-0.1,0-0.1,0-0.2,0c0,0,0-0.2,0-0.2c0,0,0-0.1,0-0.1c-2.9-2.9-6.4-5.4-10.2-7.3c-0.1,0-0.1,0-0.2,0c-0.1,0.1-0.1,0.1-0.1,0.2
							c0,0,0,0.1,0.1,0.1c3.5,1.8,6.7,4,9.4,6.6c0.2,0.2,0.4,0.4,0.6,0.5c-0.3,0-0.5-0.1-0.8-0.1c-5.6-0.9-11.5-1.3-17.9-0.9
							c-0.1,0-0.1,0-0.1,0c0,0,0,0.1,0,0.2c0,0.1,0.1,0.1,0.2,0.1c8.8-0.5,16.6,0.4,23.8,2.2c0.2,0,0.3,0.1,0.5,0.1
							c-0.1,0.1-0.2,0.2-0.4,0.3c-4,3.3-8.2,6.1-12.6,8.2c-0.1,0-0.1,0.1-0.1,0.1c0,0.1,0.1,0.1,0.1,0.1c0,0,0.1,0,0.1,0
							c4.6-2.2,8.9-5.1,13-8.6c0,0,0.1-0.1,0.1-0.1c0,0,0.1,0,0.1,0c4,1.1,7.6,2.5,11,4.1c0,0,0,0,0.1,0c0,0,0,0,0,0.1
							c0,0,0.1,0.1,0.1,0.1c0,0,0,0,0.1,0c0,0,0,0,0.1,0c3,1.4,6,3.2,9.2,5.3c0.2,0.1,0.3,0.2,0.5,0.4c-0.2,0-0.4,0.1-0.6,0.1
							c-5.8,0.8-11.3,2.4-16.2,4.7c-0.1,0-0.1,0.1-0.1,0.2c0,0.1,0,0.1,0.1,0.1c0,0,0,0,0.1,0c5.2-2.4,11-4.1,17.1-4.8
							c0,0,0.1,0,0.1,0c0,0,0,0,0.1,0.1c5.5,3.9,10.9,8.8,16.4,15.7c0,0.1,0.1,0.1,0.1,0C184.3,206.9,184.4,206.9,184.4,206.8
							C184.4,206.8,184.4,206.8,184.4,206.8z"/>
					</g>
					<g>
						<path class="st5" d="M175.2,186c-0.1,0,5.5-7.5,7.8-16.7c2.5-9,1.7-19.6-6.7-21.1c-11.8-1.8-6.7-21-15-20
							c-7.8,1.5-5.5,5.2-12.5-3.9c-7.4-8.9-14.6-4.7-25.2-7.9c-11.1-2.8-12.8,11-0.7,17.5c12,7.2-2.3,2-0.1,9.1
							c1.8,5.9,27.2,10.2,21.9,13.4c-5.3,2.5-5.8,8.3-0.6,11.7C156.3,175.7,175.1,185.6,175.2,186z"/>
						<path class="st6" d="M176.8,193.1c0,0,0.1-0.1,0-0.2c-1.8-11-6.3-25.7-15.2-38.6c0,0,0-0.1-0.1-0.1c0,0,0-0.1,0-0.1
							c0.7-4.3,0.5-9,0.1-13.6c-0.1-1.5-0.3-3-0.5-4.5c0-0.1,0-0.1-0.1-0.1c-0.1,0-0.2,0-0.3,0.1c0,0,0,0.1,0,0.1
							c0.2,1.5,0.3,3,0.5,4.4c0.4,4.2,0.6,8.5,0.1,12.5c0,0.2-0.1,0.4-0.1,0.7c-0.1-0.2-0.3-0.4-0.4-0.6
							c-3.8-5.4-8.3-10.5-13.7-15.4c0,0-0.1-0.1-0.1-0.1c0,0,0-0.2,0-0.2c0,0,0-0.1,0-0.1c-1.4-4.7-3.5-9.4-6.3-13.7
							c-0.1-0.1-0.1-0.1-0.2-0.1c-0.1,0-0.2,0.1-0.2,0.2c0,0,0,0.1,0,0.1c2.6,4,4.6,8.3,6,12.6c0.1,0.3,0.2,0.6,0.3,0.9
							c-0.2-0.2-0.5-0.4-0.7-0.6c-5.2-4.5-11.1-8.7-18-12.5c-0.1,0-0.1,0-0.1,0c-0.1,0-0.1,0.1-0.1,0.2c0,0.1,0,0.2,0.1,0.2
							c9.4,5.2,17.1,11.2,23.4,17.7c0.1,0.1,0.3,0.3,0.4,0.4c-0.2,0-0.4,0-0.5,0.1c-6.1,0.6-12,0.5-17.8-0.2c-0.1,0-0.1,0-0.1,0.1
							c0,0.1,0,0.2,0,0.2c0,0.1,0.1,0.1,0.1,0.1c6,0.8,12.2,0.9,18.5,0.2c0.1,0,0.1,0,0.2,0c0,0,0.1,0.1,0.1,0.1
							c3.5,3.7,6.5,7.4,9.1,11.1c0,0,0,0,0,0.1c0,0,0,0.1,0,0.1c0,0.1,0,0.1,0.1,0.2c0,0,0,0,0.1,0c0,0,0,0,0,0.1
							c2.3,3.3,4.4,7,6.5,11.2c0.1,0.2,0.2,0.5,0.3,0.7c-0.2-0.1-0.5-0.2-0.7-0.3c-6.4-3-13.1-5-19.5-6c-0.1,0-0.2,0-0.2,0.1
							c0,0.1,0,0.1,0,0.2c0,0,0,0.1,0.1,0.1c6.8,1,13.8,3.2,20.5,6.4c0,0,0.1,0,0.1,0c0,0,0,0.1,0,0.1c3.4,7.4,6.3,15.7,8,25.9
							c0,0.1,0.1,0.1,0.1,0.1C176.7,193.2,176.8,193.1,176.8,193.1C176.8,193.1,176.8,193.1,176.8,193.1z"/>
					</g>
				</g>
				<g>
					<g>
						<g>
							<g>
								<path class="st7" d="M279.5,157.7h-94.8c-9.2,0-16.7,7.5-16.7,16.7v198.1c0,9.2,7.5,16.7,16.7,16.7h94.8
									c9.2,0,16.7-7.5,16.7-16.7V174.4C296.2,165.2,288.7,157.7,279.5,157.7z"/>
							</g>
						</g>
						<path class="st8" d="M279.5,157.7h-94.8c-9.2,0-16.7,7.5-16.7,16.7v198.1c0,5.3,2.5,10.1,6.4,13.1l120.4-217.8
							C292.3,161.9,286.4,157.7,279.5,157.7z"/>
						<path class="st0" d="M250.6,165.8h-35.2c-1,0-1.8,0.8-1.8,1.8l0,0c0,1,0.8,1.8,1.8,1.8h35.2c1,0,1.8-0.8,1.8-1.8l0,0
							C252.4,166.6,251.6,165.8,250.6,165.8z"/>
					</g>
					<path class="st2" d="M279.5,164h-13.9l-5,9.5c-1.9,3.5-5.6,5.8-9.6,5.8h-37.9c-4,0-7.7-2.2-9.6-5.8l-5-9.5h-13.9
						c-5.7,0-10.4,4.7-10.4,10.4v198.1c0,5.7,4.7,10.4,10.4,10.4h94.8c5.7,0,10.4-4.7,10.4-10.4V174.4
						C289.9,168.6,285.3,164,279.5,164z"/>
					<path class="st9" d="M289.9,174.4v2.2L177.5,380c-2-1.9-3.3-4.6-3.3-7.6V174.4c0-5.7,4.7-10.4,10.4-10.4h13.9l5,9.5
						c1.9,3.5,5.6,5.8,9.6,5.8H251c4,0,7.7-2.2,9.6-5.8l5-9.5h13.9C285.3,164,289.9,168.6,289.9,174.4z"/>
				</g>
				<g>
					<path class="st0" d="M336.4,193.8H192.3c-4,0-7.3,3.3-7.3,7.3v35.7c0,4,3.3,7.3,7.3,7.3h144.1c4,0,7.3-3.3,7.3-7.3v-35.7
						C343.7,197,340.4,193.8,336.4,193.8z"/>
					<g>
						<g>
							<g>
								<path class="st10" d="M255.1,210.5l1,3c0.1,0.2,0.3,0.4,0.5,0.4h3.2c0.5,0,0.7,0.6,0.3,0.9l-2.6,1.9
									c-0.2,0.1-0.3,0.4-0.2,0.6l1,3c0.2,0.5-0.4,0.9-0.8,0.6l-2.6-1.9c-0.2-0.1-0.4-0.1-0.6,0l-2.6,1.9c-0.4,0.3-0.9-0.1-0.8-0.6
									l1-3c0.1-0.2,0-0.4-0.2-0.6l-2.6-1.9c-0.4-0.3-0.2-0.9,0.3-0.9h3.2c0.2,0,0.4-0.1,0.5-0.4l1-3
									C254.3,210.1,255,210.1,255.1,210.5z"/>
								<path class="st10" d="M272.7,210.5l1,3c0.1,0.2,0.3,0.4,0.5,0.4h3.2c0.5,0,0.7,0.6,0.3,0.9l-2.6,1.9
									c-0.2,0.1-0.3,0.4-0.2,0.6l1,3c0.2,0.5-0.4,0.9-0.8,0.6l-2.6-1.9c-0.2-0.1-0.4-0.1-0.6,0l-2.6,1.9c-0.4,0.3-0.9-0.1-0.8-0.6
									l1-3c0.1-0.2,0-0.4-0.2-0.6l-2.6-1.9c-0.4-0.3-0.2-0.9,0.3-0.9h3.2c0.2,0,0.4-0.1,0.5-0.4l1-3
									C271.8,210.1,272.5,210.1,272.7,210.5z"/>
								<path class="st10" d="M290.2,210.5l1,3c0.1,0.2,0.3,0.4,0.5,0.4h3.2c0.5,0,0.7,0.6,0.3,0.9l-2.6,1.9
									c-0.2,0.1-0.3,0.4-0.2,0.6l1,3c0.2,0.5-0.4,0.9-0.8,0.6L290,219c-0.2-0.1-0.4-0.1-0.6,0l-2.6,1.9c-0.4,0.3-0.9-0.1-0.8-0.6
									l1-3c0.1-0.2,0-0.4-0.2-0.6l-2.6-1.9c-0.4-0.3-0.2-0.9,0.3-0.9h3.2c0.2,0,0.4-0.1,0.5-0.4l1-3
									C289.4,210.1,290.1,210.1,290.2,210.5z"/>
								<path class="st10" d="M307.8,210.5l1,3c0.1,0.2,0.3,0.4,0.5,0.4h3.2c0.5,0,0.7,0.6,0.3,0.9l-2.6,1.9
									c-0.2,0.1-0.3,0.4-0.2,0.6l1,3c0.2,0.5-0.4,0.9-0.8,0.6l-2.6-1.9c-0.2-0.1-0.4-0.1-0.6,0l-2.6,1.9c-0.4,0.3-0.9-0.1-0.8-0.6
									l1-3c0.1-0.2,0-0.4-0.2-0.6l-2.6-1.9c-0.4-0.3-0.2-0.9,0.3-0.9h3.2c0.2,0,0.4-0.1,0.5-0.4l1-3
									C306.9,210.1,307.6,210.1,307.8,210.5z"/>
								<path class="st11" d="M325.3,210.5l1,3c0.1,0.2,0.3,0.4,0.5,0.4h3.2c0.5,0,0.7,0.6,0.3,0.9l-2.6,1.9
									c-0.2,0.1-0.3,0.4-0.2,0.6l1,3c0.2,0.5-0.4,0.9-0.8,0.6l-2.6-1.9c-0.2-0.1-0.4-0.1-0.6,0l-2.6,1.9c-0.4,0.3-0.9-0.1-0.8-0.6
									l1-3c0.1-0.2,0-0.4-0.2-0.6l-2.6-1.9c-0.4-0.3-0.2-0.9,0.3-0.9h3.2c0.2,0,0.4-0.1,0.5-0.4l1-3
									C324.5,210.1,325.2,210.1,325.3,210.5z"/>
							</g>
							<rect x="249" y="225.9" class="st11" width="51" height="1.4"/>
							<rect x="249" y="202.5" class="st5" width="51" height="2.7"/>
							<rect x="249" y="231.3" class="st11" width="51" height="1.4"/>
							<rect x="249" y="236.3" class="st11" width="23.3" height="1.4"/>
						</g>
						<g>
							
								<ellipse transform="matrix(0.9737 -0.2278 0.2278 0.9737 -44.3138 55.3093)" class="st4" cx="217.5" cy="219.7" rx="20.4" ry="20.4"/>
							<g>
								<defs>
									
										<ellipse id="SVGID_1_" transform="matrix(0.9737 -0.2278 0.2278 0.9737 -44.3138 55.3093)" cx="217.5" cy="219.7" rx="20.4" ry="20.4"/>
								</defs>
								<clipPath id="SVGID_2_">
									<use xlink:href="#SVGID_1_"  style="overflow:visible;"/>
								</clipPath>
								<g class="st12">
									<path class="st7" d="M227.6,232l-1.8-18.8c0-4.8-1.9-9.3-7-7.9l0,0c-2.3-1.2-5.2-0.9-7.1,0.9c-2,1.9-3.1,4.8-3.1,7.7
										l-2,18.3L227.6,232z"/>
									<g>
										<g id="XMLID_1_">
											<path class="st13" d="M220.5,222.3v4.1c0,0-0.6,3.2-3.3,3.8c-2.8-0.7-3.3-3.8-3.3-3.8v-4.1H220.5z"/>
										</g>
										<path class="st14" d="M220.5,221.7v2.6c-1,0.5-2.1,0.8-3.3,0.8c-1.2,0-2.3-0.3-3.3-0.8v-2.6H220.5z"/>
									</g>
									<path class="st13" d="M223.9,213.4c-3-0.1-5-2.4-5-2.4c-1.8,1.6-8.3,2.4-8.3,2.4l0,2.6c0,1.9,0.8,4.3,2.1,6.1
										c1.1,1.5,2.8,2.3,4.6,2.3c1.8,0,3.5-0.8,4.6-2.3c1.3-1.8,2.1-4.1,2.1-6.1L223.9,213.4z"/>
									<path class="st13" d="M233.5,233.4c-2.6-4.4-13.5-6.9-13.5-6.9l-2.9,1.1l-2.9-1.1c0,0-10.9,2.5-13.5,6.9l-3.2,23.9l5-0.1
										l2.9-20c0,0,1.9,6.5,1.8,10.2c-0.1,3.8-1.3,10-1.3,10h10.8h0.6h10.8c0,0-1.2-6.2-1.3-10c-0.1-3.8,1.8-10.2,1.8-10.2l2.9,20
										l5,0.1L233.5,233.4z"/>
									<path class="st5" d="M213.7,231.5"/>
									<path class="st5" d="M226,228.3c-0.9,2.5-3.1,6.3-8.8,6.6c-5.7-0.3-8-4.1-8.8-6.6c-1.7,0.6-3.4,1.5-4.9,2.4l2,6.5
										c0,0,0.1,0.1,0.1,0.2l0-0.2c0,0,0.1,0.3,0.2,0.8c0,0.1,0,0.1,0.1,0.2c0.5,1.9,1.6,6.4,1.5,9.2c-0.1,3.8-1.3,10-1.3,10h10.8
										h0.6h10.8c0,0-1.2-6.2-1.3-10c-0.1-3.8,1.8-10.2,1.8-10.2l0,0.3c0-0.1,0.1-0.2,0.1-0.3l2-6.5
										C229.4,229.8,227.7,229,226,228.3z"/>
								</g>
							</g>
						</g>
					</g>
				</g>
				<g>
					<path class="st13" d="M358.1,252.1c-0.7,0-1.4-0.4-1.7-1.1L346,230.3c0,0-1.2-5-2.7-5l-0.1,6.6l7.1,25.5c0.4,1.6,1.2,3,3.4,3
						c4.3,0.1,12.3,1.5,17.4,2.8c5.3,1.4,9.7,0,9.7,0C381,251.6,362.6,252.2,358.1,252.1z"/>
					<g>
						<g>
							<g>
								<path class="st13" d="M373.7,249.5v5.9h-9v-3.3c0,0-5.9-1.4-5.6-6.7c0.3-5.3,2.8-7.9,4.1-8.3c1.4-0.4,7.9,2.2,8,2.5
									c0.1,0.3,0.8,6,0.8,6L373.7,249.5z"/>
								<path class="st15" d="M364.3,241.4c0,0,1.6-2.2,3.1-1.1c1.5,1.1,0.7,3.3-1.1,4.4c0,0,1.9,6.3,5.6,5.9
									c3.7-0.4,8.5-4.3,8-10.4c-0.4-6.1-8.4-10.4-12.7-9.5C362.8,231.6,358.5,236.5,364.3,241.4z"/>
								<path class="st15" d="M379.8,236.4c0,0,4.8-6.1,9.7-0.8c4.8,5.3,7.9,11.3,10.1,12.4c2.2,1.1-1.9,3.9-7.2,2.2
									C387,248.6,380.2,242,379.8,236.4z"/>
								<path class="st16" d="M364.8,255.4v-3.3c0,0,3.7,0.1,5.2-1.3c0,0-1.1,2.5-3.5,2.6v2H364.8z"/>
							</g>
							<path class="st17" d="M360.8,302.7c0,0,2.1,33,4.8,39.9c2.7,6.9,19.7,38.4,19.7,38.4l8.8-1.9l-12.6-37.6
								c-0.1,2.3-1.8-8.5,1.3-19.5c1.8-6.4,1.1-13.5-1.6-19.1l-22-0.2"/>
							<path class="st5" d="M381.1,301.3c0,0-0.8,9.2-11.4,19.6c-10.7,10.5-14.8,17.6-14.8,17.6l-1.6,45.5h-8.8c0,0-5.2-48-5-49.7
								c0.1-1.7,14.7-33,16.4-35.7C357.7,295.8,381.1,301.3,381.1,301.3z"/>
							<path class="st18" d="M374.7,254.9c0,0,9.4,0.7,6,12.4c-3.8,12.8,0.6,33.2,1.4,35.4l-2.8,1.1c-8.5,3.2-17.8,3-26.2-0.6h0
								c0,0,7.5-16.5,2.2-25.2c-3.4-5.6-2.4-11.2,1.6-16.1c2.6-3.2,5.9-6.6,7.2-6.6L374.7,254.9z"/>
							<path class="st6" d="M344.6,384h1.9l-3.8-49.3c0.6-1,2.8-5,9.3-17.5c2.3-4.4,3.9-8.5,5-12.5c-1.2-0.3-2.4-0.7-3.5-1.2
								c-4.7,9.6-13.8,29.5-13.9,30.9C339.4,336,344.6,384,344.6,384z"/>
							<path class="st19" d="M362.8,275c-4.4,1.6-1.1,13.3-5.9,29.6c-1.3-0.4-2.6-0.8-3.9-1.4h0c0,0,7.5-16.5,2.2-25.2
								c-1.7-2.7-2.3-5.5-2-8.2l18.7-4.2C371.9,265.7,368.8,272.8,362.8,275z"/>
							<path class="st13" d="M322.5,245.7c0,0,17.1,28.4,22.1,30c2.2,0.7,16-4.7,21.9-5.6c3.2-0.5,5.4-3.4,5.1-6.6l0,0
								c-0.3-3.6-4.5-6.7-8.1-6l-19.2,6c0,0-16.3-16.8-19.9-20.7c0,0-1.5-4.7-3.7-4.7C318.7,238.2,321.7,244.1,322.5,245.7z"/>
							<path class="st15" d="M336.2,386.9c2.4-0.8,7-1.7,8.6-2.9h8.5c-0.1,1.7-0.1,3.4-0.2,4.5c0,0.7-0.6,1.3-1.4,1.3h-17
								c-1.1,0-1.5-1.5-0.6-2C334.7,387.4,335.4,387.1,336.2,386.9z"/>
							<path class="st15" d="M377.8,385.8c2.2-1.3,6.4-3.3,7.7-4.8l8.3-1.9c0.3,1.7,0.6,3.3,0.9,4.4c0.2,0.7-0.3,1.4-1,1.6
								l-16.5,3.8c-1.1,0.3-1.8-1.1-1-1.9C376.5,386.6,377.1,386.2,377.8,385.8z"/>
							<path class="st20" d="M344.6,266c4,0.1,22-6.6,26.8-3.4c-0.9-3.2-4.6-5.8-7.9-5l-19.2,6c0,0-16.3-16.8-19.9-20.7
								C324.4,242.9,340.3,265.9,344.6,266z"/>
						</g>
						<path class="st0" d="M379.7,236.1l-1.3,0.2c0,0,1.6,2.6,1.3,5.1l1.6-0.3C381.4,241.1,381.2,236.6,379.7,236.1z"/>
					</g>
				</g>
				<g>
					<g>
						<path class="st0" d="M267,255.7H123c-4,0-7.3,3.3-7.3,7.3v35.7c0,4,3.3,7.3,7.3,7.3H267c4,0,7.3-3.3,7.3-7.3V263
							C274.3,258.9,271.1,255.7,267,255.7z"/>
						<g>
							<g>
								<g>
									<path class="st10" d="M185.8,272.4l1,3c0.1,0.2,0.3,0.4,0.5,0.4h3.2c0.5,0,0.7,0.6,0.3,0.9l-2.6,1.9
										c-0.2,0.1-0.3,0.4-0.2,0.6l1,3c0.2,0.5-0.4,0.9-0.8,0.6l-2.6-1.9c-0.2-0.1-0.4-0.1-0.6,0l-2.6,1.9
										c-0.4,0.3-0.9-0.1-0.8-0.6l1-3c0.1-0.2,0-0.4-0.2-0.6l-2.6-1.9c-0.4-0.3-0.2-0.9,0.3-0.9h3.2c0.2,0,0.4-0.1,0.5-0.4l1-3
										C185,272,185.6,272,185.8,272.4z"/>
									<path class="st10" d="M203.3,272.4l1,3c0.1,0.2,0.3,0.4,0.5,0.4h3.2c0.5,0,0.7,0.6,0.3,0.9l-2.6,1.9
										c-0.2,0.1-0.3,0.4-0.2,0.6l1,3c0.2,0.5-0.4,0.9-0.8,0.6l-2.6-1.9c-0.2-0.1-0.4-0.1-0.6,0l-2.6,1.9
										c-0.4,0.3-0.9-0.1-0.8-0.6l1-3c0.1-0.2,0-0.4-0.2-0.6l-2.6-1.9c-0.4-0.3-0.2-0.9,0.3-0.9h3.2c0.2,0,0.4-0.1,0.5-0.4l1-3
										C202.5,272,203.2,272,203.3,272.4z"/>
									<path class="st10" d="M220.9,272.4l1,3c0.1,0.2,0.3,0.4,0.5,0.4h3.2c0.5,0,0.7,0.6,0.3,0.9l-2.6,1.9
										c-0.2,0.1-0.3,0.4-0.2,0.6l1,3c0.2,0.5-0.4,0.9-0.8,0.6l-2.6-1.9c-0.2-0.1-0.4-0.1-0.6,0l-2.6,1.9
										c-0.4,0.3-0.9-0.1-0.8-0.6l1-3c0.1-0.2,0-0.4-0.2-0.6l-2.6-1.9c-0.4-0.3-0.2-0.9,0.3-0.9h3.2c0.2,0,0.4-0.1,0.5-0.4l1-3
										C220,272,220.7,272,220.9,272.4z"/>
									<path class="st10" d="M238.4,272.4l1,3c0.1,0.2,0.3,0.4,0.5,0.4h3.2c0.5,0,0.7,0.6,0.3,0.9l-2.6,1.9
										c-0.2,0.1-0.3,0.4-0.2,0.6l1,3c0.2,0.5-0.4,0.9-0.8,0.6l-2.6-1.9c-0.2-0.1-0.4-0.1-0.6,0l-2.6,1.9
										c-0.4,0.3-0.9-0.1-0.8-0.6l1-3c0.1-0.2,0-0.4-0.2-0.6l-2.6-1.9c-0.4-0.3-0.2-0.9,0.3-0.9h3.2c0.2,0,0.4-0.1,0.5-0.4l1-3
										C237.6,272,238.3,272,238.4,272.4z"/>
									<path class="st10" d="M256,272.4l1,3c0.1,0.2,0.3,0.4,0.5,0.4h3.2c0.5,0,0.7,0.6,0.3,0.9l-2.6,1.9
										c-0.2,0.1-0.3,0.4-0.2,0.6l1,3c0.2,0.5-0.4,0.9-0.8,0.6l-2.6-1.9c-0.2-0.1-0.4-0.1-0.6,0l-2.6,1.9
										c-0.4,0.3-0.9-0.1-0.8-0.6l1-3c0.1-0.2,0-0.4-0.2-0.6l-2.6-1.9c-0.4-0.3-0.2-0.9,0.3-0.9h3.2c0.2,0,0.4-0.1,0.5-0.4l1-3
										C255.1,272,255.8,272,256,272.4z"/>
								</g>
								<rect x="179.7" y="287.7" class="st11" width="51" height="1.4"/>
								<rect x="179.7" y="264.4" class="st7" width="51" height="2.7"/>
								<rect x="179.7" y="293.1" class="st11" width="51" height="1.4"/>
								<rect x="179.7" y="298.1" class="st11" width="23.3" height="1.4"/>
							</g>
							<g>
								
									<ellipse transform="matrix(0.7071 -0.7071 0.7071 0.7071 -155.6876 187.2123)" class="st4" cx="148.1" cy="281.5" rx="20.4" ry="20.4"/>
							</g>
						</g>
					</g>
					<g>
						<g>
							<path class="st21" d="M104.6,359.4c0,0,34.5-28.9,40.6-18.7c6.1,10.2-2.9,43.3-2.9,43.3L104.6,359.4z"/>
							<path class="st17" d="M122.8,371.2l19.6,12.8c0,0,8.2-30.3,3.6-41.9C148.1,357.4,131.9,367,122.8,371.2z"/>
							<g>
								<path class="st5" d="M122.3,356.3c0,0,21.4,17.2,23.1,23.4c2.8,10-13.9,8.9-21.2,8.9c-7.2,0-53.4-1.3-53.4-1.3l0.4-7.1
									l42.5-2c0,0-23.6-3.5-22.7-17.1C92.1,347.4,122.3,356.3,122.3,356.3z"/>
								<path class="st21" d="M144.3,385.3c-3.9,3.9-14.6,3.2-20,3.2c-7.2,0-53.4-1.3-53.4-1.3l0.4-7.1l42.5-2
									c0,0,16.9,8.2,30.1,7.2C144.1,385.3,144.2,385.3,144.3,385.3z"/>
								<path class="st15" d="M71.2,387.1c0,0-1.9,4.2-0.4,7c1.4,2.8-4.8,0.8-5.8-4.8c-1-5.5-0.5-12.1,6.4-9.2L71.2,387.1z"/>
							</g>
						</g>
						<path class="st7" d="M95.2,313.7c0,0,15.5-44.9,16-44.7c1.8,0.8,5,1.5,5,1.5l-6.4,49.3L95.2,313.7z"/>
						<path class="st8" d="M111.2,308.6c-3.5-1.7-7.9-3.6-13.1-3.3c-2.1,6.1-2.9,8.4-2.9,8.4l14.6,6.1L111.2,308.6z"/>
						<g>
							<path class="st13" d="M114.6,301.9c-1.1,4.2-5.7,3.4-5.7,3.4v4h-7.8v-5.4c0,0,0,0,0,0c4.1,0.9,8.5-2,6.5-3.5
								c-1.9-1.4-2.4-3.9-1.4-5c1-1.2,3.5-0.3,3.5-0.3c2.3-0.1,4-0.4,5-0.9C115.2,296.6,115.2,299.6,114.6,301.9z"/>
							<path class="st15" d="M109.8,295.1c0,0-2.4-0.9-3.5,0.3c-1,1.2-0.6,3.6,1.4,5c1.9,1.4-2.5,4.4-6.6,3.5
								c-4.1-0.9-6.4-9.4-2.9-15c3.2-5.1,14.5-7.3,16.8-2C117.3,292.3,117.4,294.9,109.8,295.1z"/>
							<path class="st14" d="M108.9,309.3v-4c0,0-2.6-0.4-3.7-0.9c0,0,1.4,1.7,2.3,2v2.9H108.9z"/>
						</g>
						<path class="st7" d="M111,309.4c0,0-13-4.5-16.6,5.6c-3.6,10.1,2.6,34.3-4.1,42.7l0,0c10.2,4.8,21.9,5.2,32.5,1.2l1.4-0.5
							c0,0-4.5-30.9-4.7-29.8c-0.2,0.9,15.3,5.8,18.4,4.2c3.1-1.7,21.8-22.8,21.8-22.8l-6.3-0.9L136.5,320
							C136.5,320,115.3,309.7,111,309.4z"/>
						<path class="st13" d="M159.7,309.9c0,0,6.5-2.8,6.9-4.1h-9.3c-1,0-1.9,0.5-2.5,1.2l-1.4,1.9L159.7,309.9z"/>
						<path class="st8" d="M124.2,358.3c0,0-4-27.1-4.7-29.7c0.1,0.1,0.2,0.2,0.4,0.3c-0.3-0.3-0.5-0.4-0.5-0.4s-9.9-2.4-13.4-6.6
							c0,0,3.4,6.9,7.7,8.5c3.9,1.4,2.5,22.2,5.5,29.6c1.2-0.3,2.4-0.7,3.6-1.2L124.2,358.3z"/>
						<path class="st13" d="M111.6,269.3c0,0,1.6-5.9,4.1-6.3l0,7.7L111.6,269.3z"/>
					</g>
					<g>
						<defs>
							
								<ellipse id="SVGID_3_" transform="matrix(0.7071 -0.7071 0.7071 0.7071 -155.6876 187.2123)" cx="148.1" cy="281.5" rx="20.4" ry="20.4"/>
						</defs>
						<clipPath id="SVGID_4_">
							<use xlink:href="#SVGID_3_"  style="overflow:visible;"/>
						</clipPath>
						<path class="st22" d="M170.5,311.4l-1.3-11.8c-0.2-1.9-1.3-3.6-2.9-4.7l-4.1-2.7l0,0.1l0-0.1l-3.4-1.3l-3.4-1.3l-2.8-1.1
							l-1.2-0.5l-3.1,1.6l-3.1-1.6l-1.1,0.4l-2.7,1l-3.6,1.4l-3.5,1.3l0,0.1l-4,2.6c-1.6,1.1-2.7,2.8-2.9,4.7l-1.3,11.8h8.3l0,9.8
							h27.8l0-9.8H170.5z"/>
						<g class="st23">
							<path class="st7" d="M148.3,267.5L148.3,267.5c-4.6,0-8.3,3.7-8.3,8.3v4h16.6v-4C156.6,271.2,152.9,267.5,148.3,267.5z"/>
							<g>
								<g id="XMLID_6_">
									<path class="st13" d="M151.6,285.9v2.9c0,0,0,0.1-0.1,0.2c-0.4,1.7-1.9,5-3.3,5c-1.4,0-2.8-3.4-3.1-5.2c0,0,0-0.1,0-0.1
										v-2.9H151.6z"/>
								</g>
								<path class="st14" d="M151.6,285.3v2.6c-1,0.5-2.1,0.8-3.3,0.8c-1.2,0-2.3-0.3-3.3-0.8v-2.6H151.6z"/>
							</g>
							<g>
								<path class="st13" d="M144,279.8c0-1.1-0.9-2-2-2c-1.1,0-2,0.9-2,2c0,1.1,0.9,2,2,2C143.1,281.8,144,280.9,144,279.8z"/>
								<path class="st13" d="M156.6,279.8c0-1.1-0.9-2-2-2c-1.1,0-2,0.9-2,2c0,1.1,0.9,2,2,2C155.7,281.8,156.6,280.9,156.6,279.8z
									"/>
							</g>
							<path class="st13" d="M155,276.3c-2.4-1.3-3.3-2.4-3.3-2.4h-6.5c-0.5,1.5-3.3,2.4-3.3,2.4l-0.1,3.3c0,1.9,0.8,4.2,2.1,6
								c0.5,0.7,1.2,1.3,2,1.7c0.8,0.4,1.6,0.6,2.5,0.6c1.8,0,3.5-0.8,4.5-2.3c1.3-1.8,2.1-4.1,2.1-6L155,276.3z"/>
						</g>
					</g>
				</g>
				<g>
					<g>
						<path class="st0" d="M336.4,317.2H192.3c-4,0-7.3,3.3-7.3,7.3v35.7c0,4,3.3,7.3,7.3,7.3h144.1c4,0,7.3-3.3,7.3-7.3v-35.7
							C343.7,320.4,340.4,317.2,336.4,317.2z"/>
						<g>
							<g>
								<g>
									<path class="st10" d="M255.1,333.9l1,3c0.1,0.2,0.3,0.4,0.5,0.4h3.2c0.5,0,0.7,0.6,0.3,0.9l-2.6,1.9
										c-0.2,0.1-0.3,0.4-0.2,0.6l1,3c0.2,0.5-0.4,0.9-0.8,0.6l-2.6-1.9c-0.2-0.1-0.4-0.1-0.6,0l-2.6,1.9
										c-0.4,0.3-0.9-0.1-0.8-0.6l1-3c0.1-0.2,0-0.4-0.2-0.6l-2.6-1.9c-0.4-0.3-0.2-0.9,0.3-0.9h3.2c0.2,0,0.4-0.1,0.5-0.4l1-3
										C254.3,333.5,255,333.5,255.1,333.9z"/>
									<path class="st10" d="M272.7,333.9l1,3c0.1,0.2,0.3,0.4,0.5,0.4h3.2c0.5,0,0.7,0.6,0.3,0.9l-2.6,1.9
										c-0.2,0.1-0.3,0.4-0.2,0.6l1,3c0.2,0.5-0.4,0.9-0.8,0.6l-2.6-1.9c-0.2-0.1-0.4-0.1-0.6,0l-2.6,1.9
										c-0.4,0.3-0.9-0.1-0.8-0.6l1-3c0.1-0.2,0-0.4-0.2-0.6l-2.6-1.9c-0.4-0.3-0.2-0.9,0.3-0.9h3.2c0.2,0,0.4-0.1,0.5-0.4l1-3
										C271.8,333.5,272.5,333.5,272.7,333.9z"/>
									<path class="st11" d="M290.2,333.9l1,3c0.1,0.2,0.3,0.4,0.5,0.4h3.2c0.5,0,0.7,0.6,0.3,0.9l-2.6,1.9
										c-0.2,0.1-0.3,0.4-0.2,0.6l1,3c0.2,0.5-0.4,0.9-0.8,0.6l-2.6-1.9c-0.2-0.1-0.4-0.1-0.6,0l-2.6,1.9
										c-0.4,0.3-0.9-0.1-0.8-0.6l1-3c0.1-0.2,0-0.4-0.2-0.6l-2.6-1.9c-0.4-0.3-0.2-0.9,0.3-0.9h3.2c0.2,0,0.4-0.1,0.5-0.4l1-3
										C289.4,333.5,290.1,333.5,290.2,333.9z"/>
									<path class="st10" d="M289.6,333.6c-0.2,0-0.3,0.1-0.4,0.3l-1,3c-0.1,0.2-0.3,0.4-0.5,0.4h-3.2c-0.5,0-0.7,0.6-0.3,0.9
										l2.6,1.9c0.2,0.1,0.3,0.4,0.2,0.6l-1,3c-0.2,0.5,0.4,0.9,0.8,0.6l2.6-1.9c0.1,0,0.1-0.1,0.2-0.1V333.6z"/>
									<path class="st11" d="M307.8,333.9l1,3c0.1,0.2,0.3,0.4,0.5,0.4h3.2c0.5,0,0.7,0.6,0.3,0.9l-2.6,1.9
										c-0.2,0.1-0.3,0.4-0.2,0.6l1,3c0.2,0.5-0.4,0.9-0.8,0.6l-2.6-1.9c-0.2-0.1-0.4-0.1-0.6,0l-2.6,1.9
										c-0.4,0.3-0.9-0.1-0.8-0.6l1-3c0.1-0.2,0-0.4-0.2-0.6l-2.6-1.9c-0.4-0.3-0.2-0.9,0.3-0.9h3.2c0.2,0,0.4-0.1,0.5-0.4l1-3
										C306.9,333.5,307.6,333.5,307.8,333.9z"/>
									<path class="st11" d="M325.3,333.9l1,3c0.1,0.2,0.3,0.4,0.5,0.4h3.2c0.5,0,0.7,0.6,0.3,0.9l-2.6,1.9
										c-0.2,0.1-0.3,0.4-0.2,0.6l1,3c0.2,0.5-0.4,0.9-0.8,0.6l-2.6-1.9c-0.2-0.1-0.4-0.1-0.6,0l-2.6,1.9
										c-0.4,0.3-0.9-0.1-0.8-0.6l1-3c0.1-0.2,0-0.4-0.2-0.6l-2.6-1.9c-0.4-0.3-0.2-0.9,0.3-0.9h3.2c0.2,0,0.4-0.1,0.5-0.4l1-3
										C324.5,333.5,325.2,333.5,325.3,333.9z"/>
								</g>
								<rect x="249" y="349.3" class="st11" width="51" height="1.4"/>
								<rect x="249" y="325.9" class="st24" width="51" height="2.7"/>
								<rect x="249" y="354.7" class="st11" width="51" height="1.4"/>
								<rect x="249" y="359.7" class="st11" width="23.3" height="1.4"/>
							</g>
						</g>
					</g>
					<g>
						
							<ellipse transform="matrix(0.5222 -0.8528 0.8528 0.5222 -188.1653 349.0989)" class="st4" cx="217.5" cy="342.5" rx="20.4" ry="20.4"/>
						<g>
							<defs>
								
									<ellipse id="SVGID_5_" transform="matrix(0.5222 -0.8528 0.8528 0.5222 -188.1653 349.0989)" cx="217.5" cy="342.5" rx="20.4" ry="20.4"/>
							</defs>
							<clipPath id="SVGID_6_">
								<use xlink:href="#SVGID_5_"  style="overflow:visible;"/>
							</clipPath>
							<g class="st25">
								<path class="st7" d="M209.3,338.1c0,0-1.2-4.6,0.6-6.7c1.8-2,5.4-4.2,8.3-3.1c0,0,2.3-1.4,4.4-0.2c2.1,1.2,5.1,2.2,5.4,0.8
									c0,0,0.2,5.3-2.2,6.2l-1,4.1h-15.3L209.3,338.1z"/>
								<path class="st7" d="M233.5,356.2c-2.6-4.4-13.5-6.9-13.5-6.9l-2.9,1.1l-2.9-1.1c0,0-10.9,2.5-13.5,6.9l-3.2,23.9l5-0.1
									l2.9-20c0,0,1.9,6.5,1.8,10.2c-0.1,3.8-1.3,10-1.3,10h10.8h0.6h10.8c0,0-1.2-6.2-1.3-10c-0.1-3.8,1.8-10.2,1.8-10.2l2.9,20
									l5,0.1L233.5,356.2z"/>
								<path class="st5" d="M213.7,354.4"/>
								<g>
									<g id="XMLID_5_">
										<path class="st13" d="M220.5,345.1v4.1c0,0-0.6,3.2-3.3,3.8c-2.8-0.7-3.3-3.8-3.3-3.8v-4.1H220.5z"/>
									</g>
									<path class="st14" d="M220.5,344.6v2.6c-1,0.5-2.1,0.8-3.3,0.8c-1.2,0-2.3-0.3-3.3-0.8v-2.6H220.5z"/>
								</g>
								<path class="st13" d="M223.9,336.2c-3-0.1-5-2.4-5-2.4c-1.8,1.6-8.3,2.4-8.3,2.4l0,2.6c0,1.9,0.8,4.3,2.1,6.1
									c1.1,1.5,2.8,2.3,4.6,2.3c1.8,0,3.5-0.8,4.6-2.3c1.3-1.8,2.1-4.1,2.1-6.1L223.9,336.2z"/>
								<path class="st13" d="M212.3,339.1c0,1-0.8,1.8-1.8,1.8c-1,0-1.8-0.8-1.8-1.8c0-1,0.8-1.8,1.8-1.8
									C211.5,337.2,212.3,338.1,212.3,339.1z"/>
								<path class="st13" d="M225.8,339.1c0,1-0.8,1.8-1.8,1.8c-1,0-1.8-0.8-1.8-1.8c0-1,0.8-1.8,1.8-1.8
									C224.9,337.2,225.8,338.1,225.8,339.1z"/>
							</g>
						</g>
					</g>
				</g>
				<g>
					<g>
						<circle class="st10" cx="309.6" cy="110.6" r="29.9"/>
						<path class="st26" d="M309.6,80.7c-0.2,0-0.4,0-0.5,0c8.2,4.9,13.8,13.8,13.8,24.1c0,15.4-12.5,27.9-27.9,27.9
							c-2,0-4-0.2-5.9-0.6c5.4,5.1,12.6,8.3,20.6,8.3c16.5,0,29.9-13.4,29.9-29.9C339.5,94.1,326.1,80.7,309.6,80.7z"/>
					</g>
					<path class="st4" d="M99.6,205.1c6.3,0,6.6-9.3,0.3-9.7c-0.1,0-0.1,0-0.2,0c0,0,0-0.1,0-0.1c0-6.7-5.4-12-12-12
						c-2.1,0-4.1,0.5-5.8,1.5c-2.1-3.9-6.3-6.6-11-6.6c-6.9,0-12.5,5.6-12.5,12.5c0,0.4,0,0.7,0.1,1.1c-1.3-0.4-2.6-0.6-4-0.6
						c-5,0-9.5,2.6-12.1,6.4c-2.2,3.2,0.2,7.5,4.1,7.5H99.6z"/>
					<path class="st4" d="M291.6,129c8.2,0,8.6-12.2,0.5-12.7c-0.1,0-0.2,0-0.2,0c0-0.1,0-0.1,0-0.2c0-8.7-7.1-15.8-15.8-15.8
						c-2.7,0-5.3,0.7-7.6,1.9c-2.8-5.1-8.2-8.6-14.4-8.6c-9,0-16.4,7.3-16.4,16.4c0,0.5,0,1,0.1,1.4c-1.7-0.5-3.4-0.7-5.3-0.7
						c-6.6,0-12.4,3.4-15.8,8.4c-2.8,4.2,0.3,9.8,5.3,9.8H291.6z"/>
					<path class="st4" d="M390.2,157.7c-7.5,0-7.9-11.2-0.4-11.7c0.1,0,0.1,0,0.2,0c0,0,0-0.1,0-0.1c0-8,6.5-14.5,14.5-14.5
						c2.5,0,4.9,0.6,7,1.8c2.5-4.7,7.5-7.9,13.3-7.9c8.3,0,15.1,6.7,15.1,15.1c0,0.4,0,0.9-0.1,1.3c1.5-0.4,3.2-0.7,4.9-0.7
						c6.1,0,11.4,3.1,14.6,7.8c2.6,3.9-0.3,9-4.9,9H390.2z"/>
				</g>
				<g>
					<g>
						<g>
							<path class="st5" d="M416.7,367.5l1.5-0.5c0.2-2.6-0.9-6.9-6.7-13.5c-10.7-12.3-20-29.8-17.6-36.7c0,0-10.5,15.8-3.4,26.3
								C397.1,352.8,414.8,354.9,416.7,367.5z"/>
							<path class="st17" d="M417.3,367.2l0.9-0.3c0.2-2.6-0.9-6.9-6.7-13.5c-10.7-12.3-20-29.8-17.6-36.7c0,0-5.6,14.5,1.7,24.3
								C402.6,350.6,415.3,352.6,417.3,367.2z"/>
						</g>
						<g>
							<path class="st5" d="M421,356.9c-0.6,2.6-1.3,4.6-2,6.1l0.7,0.1c3.2-4.2,8.3-12.7,9.5-23.3c1.7-15.6,3.9-35.1,3.9-35.1
								s-15.9,13.1-12.3,31.3C422.5,345.1,422.1,352,421,356.9z"/>
							<g>
								<path class="st17" d="M426.6,328.6c-0.9,13-3.3,27.3-6.5,33c0.5-0.4,1-0.7,1.5-1.1c3-4.7,6.7-11.9,7.6-20.6
									c1.7-15.6,3.9-35.1,3.9-35.1S427.7,311.7,426.6,328.6z"/>
							</g>
						</g>
						<g>
							<path class="st5" d="M423.8,363c-1.4,1.5-2.6,2.6-3.6,3.4l0.4,0.3c3.7-1.7,10.3-5.5,15-12.2c6.9-9.9,15.6-22.2,15.6-22.2
								s-15.5,3-19.9,16.5C429.2,355.6,426.4,360.1,423.8,363z"/>
							<g>
								<path class="st17" d="M438.1,346c-5.4,8.4-12.3,17.2-16.6,19.8c0.4-0.1,0.9-0.1,1.4-0.2c3.8-2,8.9-5.5,12.8-11.1
									c6.9-9.9,15.6-22.2,15.6-22.2S445.1,335,438.1,346z"/>
							</g>
						</g>
						<g>
							<path class="st5" d="M417.9,362.5c1,2.8,1.7,4.7,2.1,6l0.6-0.1c-0.9-4.9-2.5-13.3-4-18.8c-2.2-8.1-0.5-12.1-2.2-26.2
								c-1.8-14.2-10.2-32.9-10.2-32.9s-5.4,19.7,2.3,38.6C414.2,347.8,413.6,350.3,417.9,362.5z"/>
							<path class="st17" d="M420,368.5l0.1,0l0.1-2c-0.9-5-2.3-12.1-3.6-16.9c-2.2-8.1-0.5-12.1-2.2-26.2
								c-1.8-14.2-10.2-32.9-10.2-32.9s2.6,28.1,6.5,40.4C414.2,342.2,419.3,365.1,420,368.5z"/>
						</g>
					</g>
					<g>
						<path class="st0" d="M404,365.6l3.4,20.1c0.3,1.9,1.9,3.2,3.8,3.2h19.7c1.9,0,3.5-1.4,3.8-3.2l3.4-20.1
							c0.3-1.8-1.1-3.5-2.9-3.5h-28.3C405.1,362.2,403.7,363.8,404,365.6z"/>
						<path class="st2" d="M438.1,364.6C438.1,364.6,438.1,364.6,438.1,364.6c0-0.2-0.1-0.4-0.2-0.6c0,0,0,0,0,0
							c-0.1-0.2-0.1-0.3-0.2-0.5c0,0,0-0.1-0.1-0.1c-0.1-0.1-0.2-0.3-0.3-0.4c0,0-0.1-0.1-0.1-0.1c-0.1-0.1-0.2-0.2-0.3-0.3
							c-0.1-0.1-0.2-0.1-0.2-0.1c-0.1-0.1-0.2-0.1-0.3-0.2c-0.1-0.1-0.2-0.1-0.4-0.1c-0.1,0-0.1-0.1-0.2-0.1c-0.2,0-0.4-0.1-0.6-0.1
							h-8.9h-19.3c-1.7,0-3,1.4-3,3.1h25.2c0,0.1,0,0.3,0,0.4l-3.4,20.1c-0.3,1.9-1.9,3.2-3.8,3.2h8.9c1.9,0,3.5-1.4,3.8-3.2
							l3.4-20.1C438.2,365.3,438.1,365,438.1,364.6z"/>
					</g>
				</g>
				<g>
					<g>
						<path class="st7" d="M144.5,218.9h-44.4c-3.2,0-5.8,2.6-5.8,5.8v23.3v11.5l11.3-10.2c0.9-0.8,2.1-1.3,3.3-1.3h35.5
							c2.2,0,4-1.8,4-4v-21.2C148.4,220.7,146.7,218.9,144.5,218.9z"/>
						<g>
							<path class="st24" d="M129.3,227.9c-1.9-1.9-5-1.9-6.9,0l-0.7,0.7l-0.7-0.7c-1-1-2.2-1.4-3.5-1.4c-1.3,0-2.5,0.5-3.5,1.4
								c-1.9,1.9-1.9,5,0,6.9l0.7,0.7l6.9,6.9l6.9-6.9l0.7-0.7c1-1,1.4-2.2,1.4-3.5C130.7,230.1,130.2,228.8,129.3,227.9z"/>
						</g>
					</g>
					<g>
						<path class="st7" d="M408.3,171.9h-44.6c-3.2,0-5.8,2.6-5.8,5.8v23.5v11.6l11.4-10.3c0.9-0.8,2.1-1.3,3.4-1.3h35.7
							c2.2,0,4-1.8,4-4v-21.3C412.3,173.7,410.5,171.9,408.3,171.9z"/>
						<g>
							<path class="st5" d="M397.7,187.8c0.8-0.1,1.4-0.7,1.4-1.5c0-0.9-0.7-1.5-1.5-1.5h-3c-0.2,0-0.3,0-0.5,0
								c-1.6,0-1.7,0-2.3-0.1c-1.3-0.3,0.2-1.9-0.6-4.8c-0.8-2.9-3.7-2.8-3.5-1.4c0.1,1.4,0.3,4.6-0.5,5.7c-1.7,2.3-4.5,2.6-4.5,2.6
								l-0.1,7.8l3.1,0c1.4,1.6,4,1.9,4.3,1.9v0h3.4l0.2,0c0,0,0,0,0.1,0h2.1c0.8,0,1.4-0.6,1.4-1.4c0-0.4-0.2-0.8-0.5-1.1
								c0.8-0.1,1.4-0.7,1.4-1.5c0-0.7-0.4-1.3-1.1-1.5h0.2c0.9,0,1.5-0.7,1.5-1.5l0,0C398.8,188.6,398.3,188,397.7,187.8z"/>
							<g>
								<polygon class="st5" points="374,195.8 379.3,195.8 379.3,184.5 374.1,184.5 								"/>
							</g>
						</g>
					</g>
					<g>
						<path class="st7" d="M306.4,299.2c-1.2-2.2-1.9-4.7-1.9-7.4c0.1-7.9,6.8-14.3,14.7-14.2c8.2,0.1,14.7,7,14.2,15.4
							c-0.4,7.2-6.2,13-13.4,13.5c-2.2,0.2-4.2-0.2-6.1-0.9c-0.9-0.3-1.9-0.4-2.8-0.1l-5.6,1.7l1.4-4.5
							C307.1,301.4,307,300.2,306.4,299.2z"/>
						<g>
							<path class="st10" d="M318.6,284.2l-1.5,4.6c-0.1,0.3-0.3,0.4-0.6,0.4h-4.8c-0.6,0-0.9,0.8-0.4,1.1l3.9,2.8
								c0.2,0.2,0.3,0.4,0.2,0.7l-1.5,4.6c-0.2,0.6,0.5,1.1,1,0.7l3.9-2.8c0.2-0.2,0.5-0.2,0.7,0l3.9,2.8c0.5,0.4,1.1-0.1,1-0.7
								l-1.5-4.6c-0.1-0.3,0-0.5,0.2-0.7l3.9-2.8c0.5-0.4,0.2-1.1-0.4-1.1h-4.8c-0.3,0-0.5-0.2-0.6-0.4l-1.5-4.6
								C319.6,283.6,318.8,283.6,318.6,284.2z"/>
						</g>
					</g>
				</g>
			</g>
		</g>
	</g>
</g>
<g id="DESIGNED_BY_FREEPIK">
</g>
</svg>
