<?xml version="1.0" encoding="utf-8"?>
<!-- Generator: Adobe Illustrator 23.0.2, SVG Export Plug-In . SVG Version: 6.00 Build 0)  -->
<svg version="1.1" id="Layer_1" xmlns="http://www.w3.org/2000/svg" xmlns:xlink="http://www.w3.org/1999/xlink" x="0px" y="0px"
	 viewBox="0 0 652.9 670" style="enable-background:new 0 0 652.9 670;" xml:space="preserve">
<style type="text/css">
	.st0{fill:#115BAE;}
</style>
<path class="st0" d="M513,0H139.9C90.6,0,50.8,43.4,50.8,97v406c0,53.6,39.9,97,89.1,97H513c49.3,0,89.1-43.4,89.1-97V97
	C602.1,43.4,562.3,0,513,0z M139.9,50H513c23.8,0,43.2,21.1,43.2,47v125.9L344,355.9c-11.5,4.3-24,4.3-35.6,0L96.7,223.2V97
	C96.7,71.1,116.1,50,139.9,50z M513,550H139.9c-23.8,0-43.2-21.1-43.2-47V279.4l211.6,129.3c11.6,4.3,24.1,4.3,35.7,0L556.2,279v224
	C556.2,528.9,536.8,550,513,550z"/>
</svg>
