<?xml version="1.0" encoding="utf-8"?>
<!-- Generator: Adobe Illustrator 23.0.2, SVG Export Plug-In . SVG Version: 6.00 Build 0)  -->
<svg version="1.1" id="Layer_1" xmlns="http://www.w3.org/2000/svg" xmlns:xlink="http://www.w3.org/1999/xlink" x="0px" y="0px"
	 viewBox="0 0 652.9 670" style="enable-background:new 0 0 652.9 670;" xml:space="preserve">
<style type="text/css">
	.st0{fill:#353535;}
</style>
<g>
	<g>
		<path class="st0" d="M485.1,0H167.8C103.1,0,50.8,57,50.8,127.4v345.3C50.8,543,103.1,600,167.8,600h317.3
			c64.6,0,117-57,117-127.4V127.4C602.1,57,549.8,0,485.1,0z M556.2,472.6c0,42.7-31.9,77.4-71.1,77.4H167.8
			c-39.2,0-71.1-34.7-71.1-77.4V127.4c0-42.7,31.9-77.4,71.1-77.4h317.3c39.2,0,71.1,34.7,71.1,77.4L556.2,472.6L556.2,472.6z"/>
	</g>
	<path class="st0" d="M214.3,348h-2.8V129.5c0-13.8-10.3-25-23-25s-23,11.2-23,25V348H162c-16.3,0-29.4,14.3-29.4,32v57
		c0,17.7,13.1,32,29.4,32h3.7v1.5c0,13.8,10.3,25,23,25s23-11.2,23-25V469h2.8c16.3,0,29.4-14.3,29.4-32v-57
		C243.7,362.3,230.6,348,214.3,348z M220.8,437c0,3.9-2.8,7-6.4,7h-2.8h-45.9H162c-3.6,0-6.4-3.1-6.4-7v-57c0-3.9,2.8-7,6.4-7h3.7
		h45.9h2.8c3.6,0,6.4,3.1,6.4,7V437z"/>
	<path class="st0" d="M353.1,135h-3.7v-5.5c0-13.8-10.3-25-23-25s-23,11.2-23,25v5.5h-2.8c-16.3,0-29.4,14.3-29.4,32v57
		c0,17.7,13.1,32,29.4,32h2.8v214.5c0,13.8,10.3,25,23,25s23-11.2,23-25V256h3.7c16.3,0,29.4-14.3,29.4-32v-57
		C382.5,149.3,369.4,135,353.1,135z M359.5,224c0,3.9-2.8,7-6.4,7h-3.7h-45.9h-2.8c-3.6,0-6.4-3.1-6.4-7v-57c0-3.9,2.8-7,6.4-7h2.8
		h45.9h3.7c3.6,0,6.4,3.1,6.4,7V224z"/>
	<path class="st0" d="M490,256h-2.8V129.5c0-13.8-10.3-25-23-25s-23,11.2-23,25V256h-3.7c-16.3,0-29.4,14.3-29.4,32v57
		c0,17.7,13.1,32,29.4,32h3.7v93.5c0,13.8,10.3,25,23,25s23-11.2,23-25V377h2.8c16.3,0,29.4-14.3,29.4-32v-57
		C519.4,270.3,506.3,256,490,256z M496.5,345c0,3.9-2.8,7-6.4,7h-2.8h-45.9h-3.7c-3.6,0-6.4-3.1-6.4-7v-57c0-3.9,2.8-7,6.4-7h3.7
		h45.9h2.8c3.6,0,6.4,3.1,6.4,7V345z"/>
</g>
</svg>
